<svg width="25" height="25" viewBox="0 0 25 25" fill="none" xmlns="http://www.w3.org/2000/svg">
<path d="M23.75 21.25H1.25C0.560008 21.25 0 21.81 0 22.5C0 23.19 0.560008 23.75 1.25 23.75H23.75C24.44 23.75 25 23.19 25 22.4999C25 21.81 24.44 21.25 23.75 21.25ZM1.25 3.74995H23.75C24.44 3.74995 25 3.18999 25 2.49995C25 1.80992 24.44 1.24995 23.75 1.24995H1.25C0.560008 1.25 0 1.80996 0 2.49999C0 3.18999 0.560008 3.74995 1.25 3.74995ZM23.75 11.25H1.25C0.560008 11.25 0 11.81 0 12.5C0 13.19 0.560008 13.75 1.25 13.75H23.75C24.44 13.75 25 13.19 25 12.5C25 11.81 24.44 11.25 23.75 11.25Z" fill="#313131"/>
</svg>
