<svg width="20" height="18" fill="none" xmlns="http://www.w3.org/2000/svg"><path d="M9.977 15.371L9.454 18l8.063-5.185-8.063-4.454.448 2.483c-.626.05-2.2.09-3.77-.84-.44-.26-2.603-1.541-2.688-3.651C3.37 4.466 4.98 2.536 7.438 1.86l-1.418-.51C2.634 2.404.188 4.98.01 7.666c-.25 3.794 4.007 8.126 9.967 7.704zm-2.8-14.203l3.136 1.022-.15-.657c4.071.131 6.723 2.648 6.645 4.82-.062 1.713-1.812 2.93-2.24 3.213l4.106 2.19c.661-.964 1.562-2.664 1.269-4.6-.511-3.374-4.477-6.318-9.78-6.426l.075-.73-3.06 1.168z" fill="#000"/></svg>